<svg xmlns="http://www.w3.org/2000/svg" viewBox="0 0 600 400" width="600" height="400">
  <defs>
    <linearGradient id="bg" x1="0" y1="0" x2="0" y2="1">
      <stop offset="0%" stop-color="#0d0d0d"/>
      <stop offset="100%" stop-color="#111111"/>
    </linearGradient>
    <linearGradient id="hero" x1="0" y1="0" x2="1" y2="1">
      <stop offset="0%" stop-color="#ea580c"/>
      <stop offset="100%" stop-color="#c2410c"/>
    </linearGradient>
    <linearGradient id="orange" x1="0" y1="0" x2="1" y2="0">
      <stop offset="0%" stop-color="#f97316"/>
      <stop offset="100%" stop-color="#ea580c"/>
    </linearGradient>
    <linearGradient id="card" x1="0" y1="0" x2="0" y2="1">
      <stop offset="0%" stop-color="#1c1c1c"/>
      <stop offset="100%" stop-color="#161616"/>
    </linearGradient>
  </defs>

  <!-- Фон -->
  <rect width="600" height="400" fill="url(#bg)"/>

  <!-- Оранжевый акцент сверху -->
  <rect width="600" height="3" fill="url(#orange)"/>

  <!-- Навбар -->
  <rect y="3" width="600" height="42" fill="#111111"/>
  <rect y="45" width="600" height="1" fill="rgba(249,115,22,0.2)"/>
  <!-- Логотип -->
  <rect x="20" y="13" width="6" height="18" rx="1" fill="#f97316"/>
  <rect x="29" y="17" width="6" height="14" rx="1" fill="#f97316" opacity="0.7"/>
  <rect x="38" y="20" width="6" height="11" rx="1" fill="#f97316" opacity="0.4"/>
  <text x="52" y="29" font-family="Arial" font-size="14" font-weight="900" fill="white" letter-spacing="1">POWER</text>
  <text x="122" y="29" font-family="Arial" font-size="14" font-weight="900" fill="#f97316" letter-spacing="1">GYM</text>
  <!-- Навигация -->
  <text x="270" y="29" font-family="Arial" font-size="10" fill="rgba(255,255,255,0.5)">Тренировки</text>
  <text x="345" y="29" font-family="Arial" font-size="10" fill="rgba(255,255,255,0.5)">Тренеры</text>
  <text x="410" y="29" font-family="Arial" font-size="10" fill="rgba(255,255,255,0.5)">Цены</text>
  <!-- CTA -->
  <rect x="470" y="13" width="106" height="22" rx="4" fill="url(#orange)"/>
  <text x="523" y="27" font-family="Arial" font-size="10" font-weight="700" fill="white" text-anchor="middle">Первый визит</text>

  <!-- Hero секция -->
  <rect y="45" width="600" height="148" fill="#0d0d0d"/>
  <!-- Сетка на фоне -->
  <line x1="0" y1="60" x2="600" y2="60" stroke="rgba(249,115,22,0.05)" stroke-width="1"/>
  <line x1="0" y1="80" x2="600" y2="80" stroke="rgba(249,115,22,0.05)" stroke-width="1"/>
  <line x1="0" y1="100" x2="600" y2="100" stroke="rgba(249,115,22,0.05)" stroke-width="1"/>
  <line x1="0" y1="120" x2="600" y2="120" stroke="rgba(249,115,22,0.05)" stroke-width="1"/>
  <line x1="0" y1="140" x2="600" y2="140" stroke="rgba(249,115,22,0.05)" stroke-width="1"/>
  <line x1="0" y1="160" x2="600" y2="160" stroke="rgba(249,115,22,0.05)" stroke-width="1"/>
  <line x1="0" y1="180" x2="600" y2="180" stroke="rgba(249,115,22,0.05)" stroke-width="1"/>
  <line x1="100" y1="45" x2="100" y2="193" stroke="rgba(249,115,22,0.05)" stroke-width="1"/>
  <line x1="200" y1="45" x2="200" y2="193" stroke="rgba(249,115,22,0.05)" stroke-width="1"/>
  <line x1="300" y1="45" x2="300" y2="193" stroke="rgba(249,115,22,0.05)" stroke-width="1"/>
  <line x1="400" y1="45" x2="400" y2="193" stroke="rgba(249,115,22,0.05)" stroke-width="1"/>
  <line x1="500" y1="45" x2="500" y2="193" stroke="rgba(249,115,22,0.05)" stroke-width="1"/>
  <!-- Orange glow -->
  <circle cx="540" cy="120" r="80" fill="rgba(249,115,22,0.08)"/>
  <!-- Hero контент -->
  <rect x="24" y="60" width="3" height="80" rx="1" fill="#f97316"/>
  <text x="36" y="82" font-family="Arial" font-size="10" fill="#f97316" font-weight="600" letter-spacing="2">ПРЕМИУМ ФИТНЕС-КЛУБ</text>
  <text x="36" y="108" font-family="Arial" font-size="24" font-weight="900" fill="white" letter-spacing="-0.5">Измени себя.</text>
  <text x="36" y="134" font-family="Arial" font-size="24" font-weight="900" fill="white" letter-spacing="-0.5">Сейчас.</text>
  <text x="36" y="155" font-family="Arial" font-size="10" fill="rgba(255,255,255,0.4)">1200 м² · 150+ тренажёров · 30 программ</text>
  <!-- CTA кнопки -->
  <rect x="36" y="163" width="130" height="24" rx="4" fill="url(#orange)"/>
  <text x="101" y="178" font-family="Arial" font-size="11" font-weight="700" fill="white" text-anchor="middle">Попробовать 7 дней</text>
  <rect x="178" y="163" width="100" height="24" rx="4" fill="rgba(255,255,255,0.05)" stroke="rgba(255,255,255,0.1)" stroke-width="1"/>
  <text x="228" y="178" font-family="Arial" font-size="10" fill="rgba(255,255,255,0.6)" text-anchor="middle">Расписание →</text>

  <!-- Цифры -->
  <rect y="193" width="600" height="40" fill="#f97316"/>
  <text x="75" y="210" font-family="Arial" font-size="15" font-weight="900" fill="white" text-anchor="middle">7 лет</text>
  <text x="75" y="224" font-family="Arial" font-size="8" fill="rgba(255,255,255,0.8)" text-anchor="middle">на рынке</text>
  <line x1="150" y1="198" x2="150" y2="228" stroke="rgba(255,255,255,0.2)" stroke-width="1"/>
  <text x="225" y="210" font-family="Arial" font-size="15" font-weight="900" fill="white" text-anchor="middle">3 200+</text>
  <text x="225" y="224" font-family="Arial" font-size="8" fill="rgba(255,255,255,0.8)" text-anchor="middle">участников</text>
  <line x1="300" y1="198" x2="300" y2="228" stroke="rgba(255,255,255,0.2)" stroke-width="1"/>
  <text x="375" y="210" font-family="Arial" font-size="15" font-weight="900" fill="white" text-anchor="middle">25+</text>
  <text x="375" y="224" font-family="Arial" font-size="8" fill="rgba(255,255,255,0.8)" text-anchor="middle">тренеров</text>
  <line x1="450" y1="198" x2="450" y2="228" stroke="rgba(255,255,255,0.2)" stroke-width="1"/>
  <text x="525" y="210" font-family="Arial" font-size="15" font-weight="900" fill="white" text-anchor="middle">4.9 ★</text>
  <text x="525" y="224" font-family="Arial" font-size="8" fill="rgba(255,255,255,0.8)" text-anchor="middle">рейтинг</text>

  <!-- Секция программ -->
  <text x="300" y="256" font-family="Arial" font-size="13" font-weight="800" fill="white" text-anchor="middle" letter-spacing="1">ПРОГРАММЫ</text>

  <!-- Карточки -->
  <!-- Карточка 1 -->
  <rect x="16" y="265" width="136" height="116" rx="8" fill="url(#card)" stroke="rgba(249,115,22,0.2)" stroke-width="1"/>
  <rect x="16" y="265" width="136" height="4" rx="4 4 0 0" fill="url(#orange)"/>
  <text x="84" y="295" font-family="Arial" font-size="22" text-anchor="middle">💪</text>
  <text x="84" y="315" font-family="Arial" font-size="11" font-weight="700" fill="white" text-anchor="middle">Силовые</text>
  <text x="84" y="329" font-family="Arial" font-size="9" fill="rgba(255,255,255,0.4)" text-anchor="middle">45 мин · Все уровни</text>
  <rect x="36" y="340" width="96" height="16" rx="8" fill="rgba(249,115,22,0.15)" stroke="rgba(249,115,22,0.3)" stroke-width="1"/>
  <text x="84" y="351" font-family="Arial" font-size="9" fill="#f97316" text-anchor="middle">от 2 500 ₽/мес</text>

  <!-- Карточка 2 -->
  <rect x="164" y="265" width="136" height="116" rx="8" fill="url(#card)" stroke="rgba(255,255,255,0.06)" stroke-width="1"/>
  <rect x="164" y="265" width="136" height="4" rx="4 4 0 0" fill="#334155"/>
  <text x="232" y="295" font-family="Arial" font-size="22" text-anchor="middle">🏃</text>
  <text x="232" y="315" font-family="Arial" font-size="11" font-weight="700" fill="white" text-anchor="middle">Кардио</text>
  <text x="232" y="329" font-family="Arial" font-size="9" fill="rgba(255,255,255,0.4)" text-anchor="middle">60 мин · Начинающие</text>
  <rect x="184" y="340" width="96" height="16" rx="8" fill="rgba(255,255,255,0.05)" stroke="rgba(255,255,255,0.1)" stroke-width="1"/>
  <text x="232" y="351" font-family="Arial" font-size="9" fill="rgba(255,255,255,0.4)" text-anchor="middle">от 2 000 ₽/мес</text>

  <!-- Карточка 3 -->
  <rect x="312" y="265" width="136" height="116" rx="8" fill="url(#card)" stroke="rgba(255,255,255,0.06)" stroke-width="1"/>
  <rect x="312" y="265" width="136" height="4" rx="4 4 0 0" fill="#334155"/>
  <text x="380" y="295" font-family="Arial" font-size="22" text-anchor="middle">🧘</text>
  <text x="380" y="315" font-family="Arial" font-size="11" font-weight="700" fill="white" text-anchor="middle">Йога</text>
  <text x="380" y="329" font-family="Arial" font-size="9" fill="rgba(255,255,255,0.4)" text-anchor="middle">50 мин · Все уровни</text>
  <rect x="332" y="340" width="96" height="16" rx="8" fill="rgba(255,255,255,0.05)" stroke="rgba(255,255,255,0.1)" stroke-width="1"/>
  <text x="380" y="351" font-family="Arial" font-size="9" fill="rgba(255,255,255,0.4)" text-anchor="middle">от 1 800 ₽/мес</text>

  <!-- Карточка 4 — CTA -->
  <rect x="460" y="265" width="124" height="116" rx="8" fill="url(#orange)"/>
  <text x="522" y="308" font-family="Arial" font-size="28" text-anchor="middle">🔥</text>
  <text x="522" y="328" font-family="Arial" font-size="12" font-weight="800" fill="white" text-anchor="middle">Все</text>
  <text x="522" y="343" font-family="Arial" font-size="12" font-weight="800" fill="white" text-anchor="middle">программы</text>
  <text x="522" y="362" font-family="Arial" font-size="10" fill="rgba(255,255,255,0.8)" text-anchor="middle">→</text>

  <!-- Нижняя полоса -->
  <rect y="390" width="600" height="10" fill="#0d0d0d"/>
  <rect y="390" width="600" height="1" fill="rgba(249,115,22,0.15)"/>
  <text x="300" y="397" font-family="Arial" font-size="7" fill="rgba(255,255,255,0.2)" text-anchor="middle" letter-spacing="2">POWER GYM · Москва, Ленинский пр-т, 45 · Пн-Вс 6:00-24:00</text>
</svg>
