<svg xmlns="http://www.w3.org/2000/svg" viewBox="0 0 800 500" width="800" height="500">
  <!-- BG dark -->
  <rect width="800" height="500" fill="#0A0A0A"/>

  <!-- NAV -->
  <rect width="800" height="56" fill="#111"/>
  <rect x="0" y="55" width="800" height="1" fill="#1F1F1F"/>
  <rect x="28" y="16" width="24" height="24" rx="4" fill="#F97316"/>
  <text x="60" y="32" font-family="system-ui,sans-serif" font-size="13" font-weight="800" fill="white" letter-spacing="2">POWER GYM</text>
  <text x="260" y="32" font-family="system-ui,sans-serif" font-size="10" fill="#666">Тренировки</text>
  <text x="350" y="32" font-family="system-ui,sans-serif" font-size="10" fill="#666">Тренеры</text>
  <text x="430" y="32" font-family="system-ui,sans-serif" font-size="10" fill="#666">Питание</text>
  <text x="510" y="32" font-family="system-ui,sans-serif" font-size="10" fill="#666">Расписание</text>
  <rect x="614" y="14" width="150" height="30" rx="4" fill="#F97316"/>
  <text x="689" y="33" font-family="system-ui,sans-serif" font-size="11" font-weight="700" fill="white" text-anchor="middle">Попробовать 7 дней</text>

  <!-- HERO -->
  <rect x="0" y="56" width="800" height="200" fill="#111"/>
  <!-- grid lines deco -->
  <line x1="0" y1="90" x2="800" y2="90" stroke="#1A1A1A" stroke-width="1"/>
  <line x1="0" y1="130" x2="800" y2="130" stroke="#1A1A1A" stroke-width="1"/>
  <line x1="200" y1="56" x2="200" y2="256" stroke="#1A1A1A" stroke-width="1"/>
  <line x1="400" y1="56" x2="400" y2="256" stroke="#1A1A1A" stroke-width="1"/>
  <line x1="600" y1="56" x2="600" y2="256" stroke="#1A1A1A" stroke-width="1"/>

  <text x="60" y="105" font-family="system-ui,sans-serif" font-size="10" fill="#F97316" letter-spacing="3" font-weight="600">ПРЕМИУМ ФИТНЕС-КЛУБ</text>
  <text x="60" y="148" font-family="system-ui,sans-serif" font-size="42" font-weight="900" fill="white">Измени себя.</text>
  <text x="60" y="192" font-family="system-ui,sans-serif" font-size="42" font-weight="900" fill="#F97316">Сейчас.</text>
  <text x="60" y="222" font-family="system-ui,sans-serif" font-size="10" fill="#555">1200 м² · 100+ тренажёров · 30 программ</text>
  <rect x="60" y="234" width="130" height="30" rx="4" fill="#F97316"/>
  <text x="125" y="253" font-family="system-ui,sans-serif" font-size="10" font-weight="700" fill="white" text-anchor="middle">Начать сейчас</text>
  <rect x="204" y="234" width="110" height="30" rx="4" fill="none" stroke="#333" stroke-width="1"/>
  <text x="259" y="253" font-family="system-ui,sans-serif" font-size="10" fill="#888" text-anchor="middle">Расписание</text>

  <!-- STATS ROW -->
  <rect x="0" y="256" width="800" height="56" fill="#161616"/>
  <rect x="0" y="256" width="800" height="1" fill="#1F1F1F"/>
  <text x="110" y="278" font-family="system-ui,sans-serif" font-size="16" font-weight="800" fill="white" text-anchor="middle">7 лет</text>
  <text x="110" y="298" font-family="system-ui,sans-serif" font-size="9" fill="#555" text-anchor="middle">на рынке</text>
  <rect x="220" y="266" width="1" height="36" fill="#222"/>
  <text x="330" y="278" font-family="system-ui,sans-serif" font-size="16" font-weight="800" fill="white" text-anchor="middle">3 200+</text>
  <text x="330" y="298" font-family="system-ui,sans-serif" font-size="9" fill="#555" text-anchor="middle">участников</text>
  <rect x="440" y="266" width="1" height="36" fill="#222"/>
  <text x="550" y="278" font-family="system-ui,sans-serif" font-size="16" font-weight="800" fill="#F97316" text-anchor="middle">25+</text>
  <text x="550" y="298" font-family="system-ui,sans-serif" font-size="9" fill="#555" text-anchor="middle">тренеров</text>
  <rect x="660" y="266" width="1" height="36" fill="#222"/>
  <text x="730" y="278" font-family="system-ui,sans-serif" font-size="16" font-weight="800" fill="white" text-anchor="middle">4.9 ★</text>
  <text x="730" y="298" font-family="system-ui,sans-serif" font-size="9" fill="#555" text-anchor="middle">рейтинг</text>

  <!-- PROGRAMS -->
  <rect x="0" y="312" width="800" height="188" fill="#0A0A0A"/>
  <text x="400" y="336" font-family="system-ui,sans-serif" font-size="11" fill="#444" text-anchor="middle" letter-spacing="3">ПРОГРАММЫ</text>

  <!-- program cards -->
  <rect x="28" y="348" width="168" height="130" rx="6" fill="#161616" stroke="#222" stroke-width="1"/>
  <rect x="28" y="348" width="168" height="48" rx="6" fill="#1A1A1A"/>
  <text x="112" y="367" font-family="system-ui,sans-serif" font-size="9" fill="#F97316" text-anchor="middle" letter-spacing="2">СИЛОВЫЕ</text>
  <text x="112" y="386" font-family="system-ui,sans-serif" font-size="11" font-weight="700" fill="white" text-anchor="middle">Тренировки</text>
  <text x="112" y="412" font-family="system-ui,sans-serif" font-size="9" fill="#555" text-anchor="middle">40 мин · Все уровни</text>
  <text x="112" y="428" font-family="system-ui,sans-serif" font-size="9" fill="#555" text-anchor="middle">Пн · Ср · Пт</text>
  <text x="112" y="449" font-family="system-ui,sans-serif" font-size="10" fill="#F97316" text-anchor="middle">от 2 000 ₽/мес</text>
  <text x="112" y="466" font-family="system-ui,sans-serif" font-size="9" fill="#444" text-anchor="middle">Записаться →</text>

  <rect x="210" y="348" width="168" height="130" rx="6" fill="#161616" stroke="#222" stroke-width="1"/>
  <rect x="210" y="348" width="168" height="48" rx="6" fill="#1A1A1A"/>
  <text x="294" y="367" font-family="system-ui,sans-serif" font-size="9" fill="#F97316" text-anchor="middle" letter-spacing="2">КАРДИО</text>
  <text x="294" y="386" font-family="system-ui,sans-serif" font-size="11" font-weight="700" fill="white" text-anchor="middle">Тренировки</text>
  <text x="294" y="412" font-family="system-ui,sans-serif" font-size="9" fill="#555" text-anchor="middle">50 мин · Без опыта</text>
  <text x="294" y="428" font-family="system-ui,sans-serif" font-size="9" fill="#555" text-anchor="middle">Вт · Чт · Сб</text>
  <text x="294" y="449" font-family="system-ui,sans-serif" font-size="10" fill="#F97316" text-anchor="middle">от 1 800 ₽/мес</text>
  <text x="294" y="466" font-family="system-ui,sans-serif" font-size="9" fill="#444" text-anchor="middle">Записаться →</text>

  <rect x="392" y="348" width="168" height="130" rx="6" fill="#161616" stroke="#222" stroke-width="1"/>
  <rect x="392" y="348" width="168" height="48" rx="6" fill="#1A1A1A"/>
  <text x="476" y="367" font-family="system-ui,sans-serif" font-size="9" fill="#F97316" text-anchor="middle" letter-spacing="2">ЙОГ А</text>
  <text x="476" y="386" font-family="system-ui,sans-serif" font-size="11" font-weight="700" fill="white" text-anchor="middle">Практика</text>
  <text x="476" y="412" font-family="system-ui,sans-serif" font-size="9" fill="#555" text-anchor="middle">60 мин · Все уровни</text>
  <text x="476" y="428" font-family="system-ui,sans-serif" font-size="9" fill="#555" text-anchor="middle">Пн · Ср · Вс</text>
  <text x="476" y="449" font-family="system-ui,sans-serif" font-size="10" fill="#F97316" text-anchor="middle">от 1 500 ₽/мес</text>
  <text x="476" y="466" font-family="system-ui,sans-serif" font-size="9" fill="#444" text-anchor="middle">Записаться →</text>

  <!-- featured card -->
  <rect x="574" y="348" width="198" height="130" rx="6" fill="#F97316"/>
  <text x="673" y="375" font-family="system-ui,sans-serif" font-size="9" fill="rgba(0,0,0,0.6)" text-anchor="middle" letter-spacing="2">ВСЕ ПРОГРАММЫ</text>
  <text x="673" y="402" font-family="system-ui,sans-serif" font-size="18" font-weight="900" fill="white" text-anchor="middle">30+</text>
  <text x="673" y="422" font-family="system-ui,sans-serif" font-size="12" font-weight="700" fill="white" text-anchor="middle">направлений</text>
  <rect x="614" y="440" width="118" height="28" rx="4" fill="black"/>
  <text x="673" y="458" font-family="system-ui,sans-serif" font-size="10" font-weight="700" fill="white" text-anchor="middle">Смотреть все</text>
</svg>
