<svg xmlns="http://www.w3.org/2000/svg" viewBox="0 0 800 500" width="800" height="500">
  <!-- BG dark -->
  <rect width="800" height="500" fill="#0C0C0C"/>

  <!-- NAV -->
  <rect width="800" height="56" fill="#111111"/>
  <rect x="0" y="55" width="800" height="1" fill="#222"/>
  <text x="32" y="34" font-family="system-ui,sans-serif" font-size="14" font-weight="800" fill="white" letter-spacing="3">INKSTUDIO</text>
  <text x="280" y="32" font-family="system-ui,sans-serif" font-size="10" fill="#888">ПОРТФОЛИО</text>
  <text x="370" y="32" font-family="system-ui,sans-serif" font-size="10" fill="#888">МАСТЕРА</text>
  <text x="450" y="32" font-family="system-ui,sans-serif" font-size="10" fill="#888">СТИЛИ</text>
  <text x="520" y="32" font-family="system-ui,sans-serif" font-size="10" fill="#888">ЦЕНЫ</text>
  <rect x="614" y="16" width="140" height="28" rx="0" fill="none" stroke="white" stroke-width="1"/>
  <text x="684" y="34" font-family="system-ui,sans-serif" font-size="10" font-weight="600" fill="white" text-anchor="middle" letter-spacing="1">ЗАПИСАТЬСЯ</text>

  <!-- HERO -->
  <rect x="0" y="56" width="800" height="220" fill="#0C0C0C"/>
  <!-- decorative lines -->
  <line x1="0" y1="100" x2="200" y2="100" stroke="#222" stroke-width="1"/>
  <line x1="600" y1="100" x2="800" y2="100" stroke="#222" stroke-width="1"/>

  <text x="400" y="108" font-family="system-ui,sans-serif" font-size="10" fill="#666" text-anchor="middle" letter-spacing="4">АВТОРСКАЯ ТАТУИРОВКА</text>
  <text x="400" y="148" font-family="Georgia,serif" font-size="36" font-weight="700" fill="white" text-anchor="middle">Искусство</text>
  <text x="400" y="188" font-family="Georgia,serif" font-size="36" font-weight="700" fill="white" text-anchor="middle">на вашей коже</text>
  <text x="400" y="216" font-family="system-ui,sans-serif" font-size="11" fill="#666" text-anchor="middle">Индивидуальный эскиз · Стерильность · Опыт 10 лет</text>

  <rect x="278" y="232" width="110" height="32" rx="0" fill="white"/>
  <text x="333" y="252" font-family="system-ui,sans-serif" font-size="10" font-weight="700" fill="black" text-anchor="middle" letter-spacing="1">ЗАПИСАТЬСЯ</text>
  <rect x="402" y="232" width="120" height="32" rx="0" fill="none" stroke="#444" stroke-width="1"/>
  <text x="462" y="252" font-family="system-ui,sans-serif" font-size="10" fill="#888" text-anchor="middle" letter-spacing="1">ПОРТФОЛИО</text>

  <!-- PORTFOLIO GRID -->
  <rect x="0" y="276" width="800" height="224" fill="#0F0F0F"/>
  <text x="400" y="300" font-family="system-ui,sans-serif" font-size="11" fill="#555" text-anchor="middle" letter-spacing="3">ПОРТФОЛИО</text>

  <!-- portfolio items -->
  <rect x="28" y="312" width="158" height="140" rx="4" fill="#1A1A1A"/>
  <rect x="28" y="312" width="158" height="100" rx="4" fill="#222"/>
  <!-- abstract tattoo shapes -->
  <circle cx="107" cy="362" r="28" fill="none" stroke="#444" stroke-width="1.5"/>
  <circle cx="107" cy="362" r="18" fill="none" stroke="#555" stroke-width="1"/>
  <line x1="79" y1="362" x2="135" y2="362" stroke="#444" stroke-width="1"/>
  <line x1="107" y1="334" x2="107" y2="390" stroke="#444" stroke-width="1"/>
  <text x="107" y="426" font-family="system-ui,sans-serif" font-size="9" fill="#666" text-anchor="middle">Геометрия · Blackwork</text>
  <text x="107" y="440" font-family="system-ui,sans-serif" font-size="8" fill="#444" text-anchor="middle">Мастер: Алекс</text>

  <rect x="202" y="312" width="158" height="140" rx="4" fill="#1A1A1A"/>
  <rect x="202" y="312" width="158" height="100" rx="4" fill="#1E1E1E"/>
  <!-- flower shapes -->
  <ellipse cx="281" cy="355" rx="20" ry="28" fill="none" stroke="#555" stroke-width="1.5" transform="rotate(0,281,355)"/>
  <ellipse cx="281" cy="355" rx="20" ry="28" fill="none" stroke="#444" stroke-width="1" transform="rotate(45,281,355)"/>
  <ellipse cx="281" cy="355" rx="20" ry="28" fill="none" stroke="#444" stroke-width="1" transform="rotate(90,281,355)"/>
  <circle cx="281" cy="355" r="6" fill="#333"/>
  <text x="281" y="426" font-family="system-ui,sans-serif" font-size="9" fill="#666" text-anchor="middle">Флoral · Fine Line</text>
  <text x="281" y="440" font-family="system-ui,sans-serif" font-size="8" fill="#444" text-anchor="middle">Мастер: Мария</text>

  <rect x="376" y="312" width="158" height="140" rx="4" fill="#1A1A1A"/>
  <rect x="376" y="312" width="158" height="100" rx="4" fill="#181818"/>
  <!-- dragon/abstract -->
  <path d="M420 380 Q455 330 490 360 Q470 385 455 370 Q440 390 420 380Z" fill="none" stroke="#555" stroke-width="1.5"/>
  <path d="M430 365 Q455 345 478 358" fill="none" stroke="#444" stroke-width="1"/>
  <text x="455" y="426" font-family="system-ui,sans-serif" font-size="9" fill="#666" text-anchor="middle">Реализм · Цвет</text>
  <text x="455" y="440" font-family="system-ui,sans-serif" font-size="8" fill="#444" text-anchor="middle">Мастер: Иван</text>

  <rect x="550" y="312" width="222" height="140" rx="4" fill="#111"/>
  <rect x="550" y="312" width="222" height="100" rx="4" fill="#161616"/>
  <text x="661" y="355" font-family="Georgia,serif" font-size="24" fill="#333" text-anchor="middle">YOUR</text>
  <text x="661" y="382" font-family="Georgia,serif" font-size="24" fill="#333" text-anchor="middle">WORK</text>
  <rect x="600" y="400" width="122" height="28" rx="0" fill="none" stroke="#333" stroke-width="1"/>
  <text x="661" y="418" font-family="system-ui,sans-serif" font-size="9" fill="#555" text-anchor="middle" letter-spacing="1">Записаться на консультацию →</text>
</svg>
